<?xml version="1.0" encoding="UTF-8"?>
<svg xmlns="http://www.w3.org/2000/svg" xmlns:xlink="http://www.w3.org/1999/xlink" width="364.813" height="103.61" viewBox="0 0 364.813 103.61">
<path fill-rule="nonzero" fill="rgb(50%, 50%, 50%)" fill-opacity="1" d="M 61.957031 41.253906 L 61.957031 61.496094 L 82.199219 61.496094 L 82.199219 41.253906 Z M 61.957031 41.253906 "/>
<path fill-rule="nonzero" fill="rgb(50%, 50%, 50%)" fill-opacity="1" d="M 191.683594 41.253906 L 191.683594 61.496094 L 211.925781 61.496094 L 211.925781 41.253906 Z M 191.683594 41.253906 "/>
<path fill-rule="nonzero" fill="rgb(50%, 50%, 50%)" fill-opacity="1" d="M 321.414062 41.253906 L 321.414062 61.496094 L 341.652344 61.496094 L 341.652344 41.253906 Z M 321.414062 41.253906 "/>
<path fill-rule="nonzero" fill="rgb(50%, 50%, 50%)" fill-opacity="1" d="M 126.820312 3.320312 L 126.820312 23.5625 L 166.90625 23.5625 L 166.90625 3.320312 Z M 126.820312 3.320312 "/>
<path fill-rule="nonzero" fill="rgb(50%, 50%, 50%)" fill-opacity="1" d="M 256.546875 3.320312 L 256.546875 23.5625 L 296.632812 23.5625 L 296.632812 3.320312 Z M 256.546875 3.320312 "/>
<path fill="none" stroke-width="0.3985" stroke-linecap="butt" stroke-linejoin="miter" stroke="rgb(0%, 0%, 0%)" stroke-opacity="1" stroke-miterlimit="10" d="M -9.921469 -9.920844 L 9.922281 -9.920844 L 9.922281 9.922906 L -9.921469 9.922906 Z M -9.921469 -9.920844 " transform="matrix(1, 0, 0, -1, 13.441, 90.169)"/>
<path fill="none" stroke-width="0.3985" stroke-linecap="butt" stroke-linejoin="miter" stroke="rgb(0%, 0%, 0%)" stroke-opacity="1" stroke-miterlimit="10" d="M -9.919719 -9.920844 L 9.920125 -9.920844 L 9.920125 9.922906 L -9.919719 9.922906 Z M -9.919719 -9.920844 " transform="matrix(1, 0, 0, -1, 33.283, 90.169)"/>
<path fill="none" stroke-width="0.3985" stroke-linecap="butt" stroke-linejoin="miter" stroke="rgb(0%, 0%, 0%)" stroke-opacity="1" stroke-miterlimit="10" d="M -9.92075 -9.921875 L 9.923 -9.921875 L 9.923 9.921875 L -9.92075 9.921875 Z M -9.92075 -9.921875 " transform="matrix(1, 0, 0, -1, 72.077, 51.375)"/>
<path fill="none" stroke-width="0.3985" stroke-linecap="butt" stroke-linejoin="miter" stroke="rgb(0%, 0%, 0%)" stroke-opacity="1" stroke-miterlimit="10" d="M -9.92 -9.921875 L 9.919844 -9.921875 L 9.919844 9.921875 L -9.92 9.921875 Z M -9.92 -9.921875 " transform="matrix(1, 0, 0, -1, 91.92, 51.375)"/>
<path fill="none" stroke-width="0.3985" stroke-linecap="butt" stroke-linejoin="miter" stroke="rgb(0%, 0%, 0%)" stroke-opacity="1" stroke-miterlimit="10" d="M -9.920469 -9.922281 L 9.923281 -9.922281 L 9.923281 9.921469 L -9.920469 9.921469 Z M -9.920469 -9.922281 " transform="matrix(1, 0, 0, -1, 136.94, 13.441)"/>
<path fill="none" stroke-width="0.3985" stroke-linecap="butt" stroke-linejoin="miter" stroke="rgb(0%, 0%, 0%)" stroke-opacity="1" stroke-miterlimit="10" d="M -9.919719 -9.922281 L 9.920125 -9.922281 L 9.920125 9.921469 L -9.919719 9.921469 Z M -9.919719 -9.922281 " transform="matrix(1, 0, 0, -1, 156.783, 13.441)"/>
<path fill="none" stroke-width="0.3985" stroke-linecap="butt" stroke-linejoin="miter" stroke="rgb(0%, 0%, 0%)" stroke-opacity="1" stroke-miterlimit="10" d="M -9.920469 -9.921469 L 9.923281 -9.921469 L 9.923281 9.922281 L -9.920469 9.922281 Z M -9.920469 -9.921469 " transform="matrix(1, 0, 0, -1, 136.94, 89.309)"/>
<path fill="none" stroke-width="0.3985" stroke-linecap="butt" stroke-linejoin="miter" stroke="rgb(0%, 0%, 0%)" stroke-opacity="1" stroke-miterlimit="10" d="M -9.919719 -9.921469 L 9.920125 -9.921469 L 9.920125 9.922281 L -9.919719 9.922281 Z M -9.919719 -9.921469 " transform="matrix(1, 0, 0, -1, 156.783, 89.309)"/>
<path fill="none" stroke-width="0.3985" stroke-linecap="butt" stroke-linejoin="miter" stroke="rgb(0%, 0%, 0%)" stroke-opacity="1" stroke-miterlimit="10" d="M -9.920188 -9.921875 L 9.919656 -9.921875 L 9.919656 9.921875 L -9.920188 9.921875 Z M -9.920188 -9.921875 " transform="matrix(1, 0, 0, -1, 201.803, 51.375)"/>
<path fill="none" stroke-width="0.3985" stroke-linecap="butt" stroke-linejoin="miter" stroke="rgb(0%, 0%, 0%)" stroke-opacity="1" stroke-miterlimit="10" d="M -9.919438 -9.921875 L 9.920406 -9.921875 L 9.920406 9.921875 L -9.919438 9.921875 Z M -9.919438 -9.921875 " transform="matrix(1, 0, 0, -1, 221.646, 51.375)"/>
<path fill="none" stroke-width="0.3985" stroke-linecap="butt" stroke-linejoin="miter" stroke="rgb(0%, 0%, 0%)" stroke-opacity="1" stroke-miterlimit="10" d="M -9.919906 -9.922281 L 9.919938 -9.922281 L 9.919938 9.921469 L -9.919906 9.921469 Z M -9.919906 -9.922281 " transform="matrix(1, 0, 0, -1, 266.666, 13.441)"/>
<path fill="none" stroke-width="0.3985" stroke-linecap="butt" stroke-linejoin="miter" stroke="rgb(0%, 0%, 0%)" stroke-opacity="1" stroke-miterlimit="10" d="M -9.923063 -9.922281 L 9.920687 -9.922281 L 9.920687 9.921469 L -9.923063 9.921469 Z M -9.923063 -9.922281 " transform="matrix(1, 0, 0, -1, 286.509, 13.441)"/>
<path fill="none" stroke-width="0.3985" stroke-linecap="butt" stroke-linejoin="miter" stroke="rgb(0%, 0%, 0%)" stroke-opacity="1" stroke-miterlimit="10" d="M -9.919906 -9.921469 L 9.919938 -9.921469 L 9.919938 9.922281 L -9.919906 9.922281 Z M -9.919906 -9.921469 " transform="matrix(1, 0, 0, -1, 266.666, 89.309)"/>
<path fill="none" stroke-width="0.3985" stroke-linecap="butt" stroke-linejoin="miter" stroke="rgb(0%, 0%, 0%)" stroke-opacity="1" stroke-miterlimit="10" d="M -9.923063 -9.921469 L 9.920687 -9.921469 L 9.920687 9.922281 L -9.923063 9.922281 Z M -9.923063 -9.921469 " transform="matrix(1, 0, 0, -1, 286.509, 89.309)"/>
<path fill="none" stroke-width="0.3985" stroke-linecap="butt" stroke-linejoin="miter" stroke="rgb(0%, 0%, 0%)" stroke-opacity="1" stroke-miterlimit="10" d="M -9.920625 -9.921875 L 9.923125 -9.921875 L 9.923125 9.921875 L -9.920625 9.921875 Z M -9.920625 -9.921875 " transform="matrix(1, 0, 0, -1, 331.53, 51.375)"/>
<path fill="none" stroke-width="0.3985" stroke-linecap="butt" stroke-linejoin="miter" stroke="rgb(0%, 0%, 0%)" stroke-opacity="1" stroke-miterlimit="10" d="M -9.922781 -9.921875 L 9.920969 -9.921875 L 9.920969 9.921875 L -9.922781 9.921875 Z M -9.922781 -9.921875 " transform="matrix(1, 0, 0, -1, 351.372, 51.375)"/>
<path fill="none" stroke-width="0.79701" stroke-linecap="butt" stroke-linejoin="miter" stroke="rgb(0%, 0%, 0%)" stroke-opacity="1" stroke-miterlimit="10" d="M 22.153625 12.235406 L 35.98175 26.059625 " transform="matrix(1, 0, 0, -1, 23.362, 90.169)"/>
<path fill="none" stroke-width="0.6376" stroke-linecap="round" stroke-linejoin="round" stroke="rgb(0%, 0%, 0%)" stroke-opacity="1" stroke-miterlimit="10" d="M -1.552597 2.071382 C -1.42278 1.295208 0.00249793 0.129557 0.38644 -0.000267902 C -0.00026607 -0.127326 -1.422798 -1.295718 -1.552626 -2.071891 " transform="matrix(0.70709, -0.7071, -0.7071, -0.70709, 59.34375, 64.109)"/>
<path fill="none" stroke-width="0.79701" stroke-linecap="butt" stroke-linejoin="miter" stroke="rgb(0%, 0%, 0%)" stroke-opacity="1" stroke-miterlimit="10" d="M 80.966125 49.243219 L 100.634094 65.821344 " transform="matrix(1, 0, 0, -1, 23.362, 90.169)"/>
<path fill="none" stroke-width="0.6376" stroke-linecap="round" stroke-linejoin="round" stroke="rgb(0%, 0%, 0%)" stroke-opacity="1" stroke-miterlimit="10" d="M -1.5532 2.070849 C -1.425965 1.294372 -0.00143216 0.129558 0.389482 -0.000656764 C 0.00113901 -0.128046 -1.426837 -1.295028 -1.554689 -2.07109 " transform="matrix(0.76462, -0.64441, -0.64441, -0.76462, 123.99474, 24.34814)"/>
<path fill="none" stroke-width="0.79701" stroke-linecap="butt" stroke-linejoin="miter" stroke="rgb(0%, 0%, 0%)" stroke-opacity="1" stroke-miterlimit="10" d="M 80.966125 28.344781 L 100.634094 11.766656 " transform="matrix(1, 0, 0, -1, 23.362, 90.169)"/>
<path fill="none" stroke-width="0.6376" stroke-linecap="round" stroke-linejoin="round" stroke="rgb(0%, 0%, 0%)" stroke-opacity="1" stroke-miterlimit="10" d="M -1.554386 2.070731 C -1.426534 1.294669 -0.00107554 0.130674 0.389785 0.00029736 C -0.00112926 -0.129918 -1.425662 -1.294731 -1.552897 -2.071209 " transform="matrix(0.76462, 0.64441, 0.64441, -0.76462, 123.99474, 78.40139)"/>
<path fill="none" stroke-width="0.79701" stroke-linecap="butt" stroke-linejoin="miter" stroke="rgb(0%, 0%, 0%)" stroke-opacity="1" stroke-miterlimit="10" d="M 145.829406 66.278375 L 165.497375 49.70025 " transform="matrix(1, 0, 0, -1, 23.362, 90.169)"/>
<path fill="none" stroke-width="0.6376" stroke-linecap="round" stroke-linejoin="round" stroke="rgb(0%, 0%, 0%)" stroke-opacity="1" stroke-miterlimit="10" d="M -1.554303 2.069641 C -1.423464 1.296097 -0.00099283 0.129584 0.389867 -0.000792002 C -0.00104655 -0.131007 -1.42558 -1.29582 -1.552814 -2.072298 " transform="matrix(0.76462, 0.64441, 0.64441, -0.76462, 188.85866, 40.46691)"/>
<path fill="none" stroke-width="0.79701" stroke-linecap="butt" stroke-linejoin="miter" stroke="rgb(0%, 0%, 0%)" stroke-opacity="1" stroke-miterlimit="10" d="M 145.829406 11.309625 L 165.497375 27.88775 " transform="matrix(1, 0, 0, -1, 23.362, 90.169)"/>
<path fill="none" stroke-width="0.6376" stroke-linecap="round" stroke-linejoin="round" stroke="rgb(0%, 0%, 0%)" stroke-opacity="1" stroke-miterlimit="10" d="M -1.55313 2.071923 C -1.425895 1.295446 -0.00136234 0.130632 0.389552 0.000417303 C -0.00130862 -0.129959 -1.42378 -1.296472 -1.554619 -2.070016 " transform="matrix(0.76462, -0.64441, -0.64441, -0.76462, 188.85866, 62.2826)"/>
<path fill="none" stroke-width="0.79701" stroke-linecap="butt" stroke-linejoin="miter" stroke="rgb(0%, 0%, 0%)" stroke-opacity="1" stroke-miterlimit="10" d="M 210.692688 49.243219 L 230.360656 65.821344 " transform="matrix(1, 0, 0, -1, 23.362, 90.169)"/>
<path fill="none" stroke-width="0.6376" stroke-linecap="round" stroke-linejoin="round" stroke="rgb(0%, 0%, 0%)" stroke-opacity="1" stroke-miterlimit="10" d="M -1.554177 2.071672 C -1.426942 1.295195 0.000578018 0.127864 0.388505 0.000166545 C 0.000162121 -0.127223 -1.424827 -1.296723 -1.552679 -2.072784 " transform="matrix(0.76462, -0.64441, -0.64441, -0.76462, 253.72258, 24.34814)"/>
<path fill="none" stroke-width="0.79701" stroke-linecap="butt" stroke-linejoin="miter" stroke="rgb(0%, 0%, 0%)" stroke-opacity="1" stroke-miterlimit="10" d="M 210.692688 28.344781 L 230.360656 11.766656 " transform="matrix(1, 0, 0, -1, 23.362, 90.169)"/>
<path fill="none" stroke-width="0.6376" stroke-linecap="round" stroke-linejoin="round" stroke="rgb(0%, 0%, 0%)" stroke-opacity="1" stroke-miterlimit="10" d="M -1.552376 2.072425 C -1.424524 1.296363 -0.00205244 0.12985 0.388808 -0.00052595 C 0.000880919 -0.128224 -1.426639 -1.295554 -1.553874 -2.072032 " transform="matrix(0.76462, 0.64441, 0.64441, -0.76462, 253.72258, 78.40139)"/>
<path fill="none" stroke-width="0.79701" stroke-linecap="butt" stroke-linejoin="miter" stroke="rgb(0%, 0%, 0%)" stroke-opacity="1" stroke-miterlimit="10" d="M 275.555969 66.278375 L 295.223937 49.70025 " transform="matrix(1, 0, 0, -1, 23.362, 90.169)"/>
<path fill="none" stroke-width="0.6376" stroke-linecap="round" stroke-linejoin="round" stroke="rgb(0%, 0%, 0%)" stroke-opacity="1" stroke-miterlimit="10" d="M -1.552308 2.071322 C -1.424456 1.295261 0.00100206 0.131266 0.388875 -0.0016282 C 0.00094834 -0.129326 -1.423585 -1.294139 -1.553807 -2.073134 " transform="matrix(0.76462, 0.64441, 0.64441, -0.76462, 318.58652, 40.46691)"/>
<path fill="none" stroke-width="0.79701" stroke-linecap="butt" stroke-linejoin="miter" stroke="rgb(0%, 0%, 0%)" stroke-opacity="1" stroke-miterlimit="10" d="M 275.555969 11.309625 L 295.223937 27.88775 " transform="matrix(1, 0, 0, -1, 23.362, 90.169)"/>
<path fill="none" stroke-width="0.6376" stroke-linecap="round" stroke-linejoin="round" stroke="rgb(0%, 0%, 0%)" stroke-opacity="1" stroke-miterlimit="10" d="M -1.554122 2.072759 C -1.4239 1.293764 0.00063255 0.128951 0.388559 0.0012535 C 0.000686266 -0.13164 -1.424772 -1.295636 -1.552624 -2.071697 " transform="matrix(0.76462, -0.64441, -0.64441, -0.76462, 318.58652, 62.2826)"/>
</svg>
