<?xml version="1.0" encoding="UTF-8"?>
<svg xmlns="http://www.w3.org/2000/svg" xmlns:xlink="http://www.w3.org/1999/xlink" width="405.389" height="140.684" viewBox="0 0 405.389 140.684">
<path fill-rule="nonzero" fill="rgb(50%, 50%, 50%)" fill-opacity="1" d="M 88.027344 79.1875 L 88.027344 99.429688 L 108.265625 99.429688 L 108.265625 79.1875 Z M 88.027344 79.1875 "/>
<path fill-rule="nonzero" fill="rgb(50%, 50%, 50%)" fill-opacity="1" d="M 257.441406 79.1875 L 257.441406 99.429688 L 277.679688 99.429688 L 277.679688 79.1875 Z M 257.441406 79.1875 "/>
<path fill-rule="nonzero" fill="rgb(50%, 50%, 50%)" fill-opacity="1" d="M 172.734375 41.253906 L 172.734375 61.496094 L 212.816406 61.496094 L 212.816406 41.253906 Z M 172.734375 41.253906 "/>
<path fill-rule="nonzero" fill="rgb(50%, 50%, 50%)" fill-opacity="1" d="M 342.144531 41.253906 L 342.144531 61.496094 L 382.230469 61.496094 L 382.230469 41.253906 Z M 342.144531 41.253906 "/>
<path fill-rule="nonzero" fill="rgb(50%, 50%, 50%)" fill-opacity="1" d="M 257.441406 3.320312 L 257.441406 23.558594 L 317.367188 23.558594 L 317.367188 3.320312 Z M 257.441406 3.320312 "/>
<path fill="none" stroke-width="0.3985" stroke-linecap="butt" stroke-linejoin="miter" stroke="rgb(0%, 0%, 0%)" stroke-opacity="1" stroke-miterlimit="10" d="M -9.921469 -9.921063 L 9.922281 -9.921063 L 9.922281 9.922687 L -9.921469 9.922687 Z M -9.921469 -9.921063 " transform="matrix(1, 0, 0, -1, 13.441, 127.243)"/>
<path fill="none" stroke-width="0.3985" stroke-linecap="butt" stroke-linejoin="miter" stroke="rgb(0%, 0%, 0%)" stroke-opacity="1" stroke-miterlimit="10" d="M -9.919719 -9.921063 L 9.920125 -9.921063 L 9.920125 9.922687 L -9.919719 9.922687 Z M -9.919719 -9.921063 " transform="matrix(1, 0, 0, -1, 33.283, 127.243)"/>
<path fill="none" stroke-width="0.3985" stroke-linecap="butt" stroke-linejoin="miter" stroke="rgb(0%, 0%, 0%)" stroke-opacity="1" stroke-miterlimit="10" d="M -9.922875 -9.921063 L 9.920875 -9.921063 L 9.920875 9.922687 L -9.922875 9.922687 Z M -9.922875 -9.921063 " transform="matrix(1, 0, 0, -1, 53.126, 127.243)"/>
<path fill="none" stroke-width="0.3985" stroke-linecap="butt" stroke-linejoin="miter" stroke="rgb(0%, 0%, 0%)" stroke-opacity="1" stroke-miterlimit="10" d="M -9.920438 -9.921469 L 9.923312 -9.921469 L 9.923312 9.922281 L -9.920438 9.922281 Z M -9.920438 -9.921469 " transform="matrix(1, 0, 0, -1, 98.147, 89.309)"/>
<path fill="none" stroke-width="0.3985" stroke-linecap="butt" stroke-linejoin="miter" stroke="rgb(0%, 0%, 0%)" stroke-opacity="1" stroke-miterlimit="10" d="M -9.922594 -9.921469 L 9.921156 -9.921469 L 9.921156 9.922281 L -9.922594 9.922281 Z M -9.922594 -9.921469 " transform="matrix(1, 0, 0, -1, 117.989, 89.309)"/>
<path fill="none" stroke-width="0.3985" stroke-linecap="butt" stroke-linejoin="miter" stroke="rgb(0%, 0%, 0%)" stroke-opacity="1" stroke-miterlimit="10" d="M -9.921844 -9.921469 L 9.921906 -9.921469 L 9.921906 9.922281 L -9.921844 9.922281 Z M -9.921844 -9.921469 " transform="matrix(1, 0, 0, -1, 137.832, 89.309)"/>
<path fill="none" stroke-width="0.3985" stroke-linecap="butt" stroke-linejoin="miter" stroke="rgb(0%, 0%, 0%)" stroke-opacity="1" stroke-miterlimit="10" d="M -9.922312 -9.921875 L 9.921438 -9.921875 L 9.921438 9.921875 L -9.922312 9.921875 Z M -9.922312 -9.921875 " transform="matrix(1, 0, 0, -1, 182.852, 51.375)"/>
<path fill="none" stroke-width="0.3985" stroke-linecap="butt" stroke-linejoin="miter" stroke="rgb(0%, 0%, 0%)" stroke-opacity="1" stroke-miterlimit="10" d="M -9.921562 -9.921875 L 9.922188 -9.921875 L 9.922188 9.921875 L -9.921562 9.921875 Z M -9.921562 -9.921875 " transform="matrix(1, 0, 0, -1, 202.695, 51.375)"/>
<path fill="none" stroke-width="0.3985" stroke-linecap="butt" stroke-linejoin="miter" stroke="rgb(0%, 0%, 0%)" stroke-opacity="1" stroke-miterlimit="10" d="M -9.919812 -9.921875 L 9.920031 -9.921875 L 9.920031 9.921875 L -9.919812 9.921875 Z M -9.919812 -9.921875 " transform="matrix(1, 0, 0, -1, 222.537, 51.375)"/>
<path fill="none" stroke-width="0.3985" stroke-linecap="butt" stroke-linejoin="miter" stroke="rgb(0%, 0%, 0%)" stroke-opacity="1" stroke-miterlimit="10" d="M -9.922312 -9.921063 L 9.921438 -9.921063 L 9.921438 9.922687 L -9.922312 9.922687 Z M -9.922312 -9.921063 " transform="matrix(1, 0, 0, -1, 182.852, 127.243)"/>
<path fill="none" stroke-width="0.3985" stroke-linecap="butt" stroke-linejoin="miter" stroke="rgb(0%, 0%, 0%)" stroke-opacity="1" stroke-miterlimit="10" d="M -9.921562 -9.921063 L 9.922188 -9.921063 L 9.922188 9.922687 L -9.921562 9.922687 Z M -9.921562 -9.921063 " transform="matrix(1, 0, 0, -1, 202.695, 127.243)"/>
<path fill="none" stroke-width="0.3985" stroke-linecap="butt" stroke-linejoin="miter" stroke="rgb(0%, 0%, 0%)" stroke-opacity="1" stroke-miterlimit="10" d="M -9.919812 -9.921063 L 9.920031 -9.921063 L 9.920031 9.922687 L -9.919812 9.922687 Z M -9.919812 -9.921063 " transform="matrix(1, 0, 0, -1, 222.537, 127.243)"/>
<path fill="none" stroke-width="0.3985" stroke-linecap="butt" stroke-linejoin="miter" stroke="rgb(0%, 0%, 0%)" stroke-opacity="1" stroke-miterlimit="10" d="M -9.921281 -9.922281 L 9.922469 -9.922281 L 9.922469 9.921469 L -9.921281 9.921469 Z M -9.921281 -9.922281 " transform="matrix(1, 0, 0, -1, 267.558, 13.441)"/>
<path fill="none" stroke-width="0.3985" stroke-linecap="butt" stroke-linejoin="miter" stroke="rgb(0%, 0%, 0%)" stroke-opacity="1" stroke-miterlimit="10" d="M -9.919531 -9.922281 L 9.920313 -9.922281 L 9.920313 9.921469 L -9.919531 9.921469 Z M -9.919531 -9.922281 " transform="matrix(1, 0, 0, -1, 287.4, 13.441)"/>
<path fill="none" stroke-width="0.3985" stroke-linecap="butt" stroke-linejoin="miter" stroke="rgb(0%, 0%, 0%)" stroke-opacity="1" stroke-miterlimit="10" d="M -9.922687 -9.922281 L 9.921063 -9.922281 L 9.921063 9.921469 L -9.922687 9.921469 Z M -9.922687 -9.922281 " transform="matrix(1, 0, 0, -1, 307.243, 13.441)"/>
<path fill="none" stroke-width="0.3985" stroke-linecap="butt" stroke-linejoin="miter" stroke="rgb(0%, 0%, 0%)" stroke-opacity="1" stroke-miterlimit="10" d="M -9.921281 -9.921469 L 9.922469 -9.921469 L 9.922469 9.922281 L -9.921281 9.922281 Z M -9.921281 -9.921469 " transform="matrix(1, 0, 0, -1, 267.558, 89.309)"/>
<path fill="none" stroke-width="0.3985" stroke-linecap="butt" stroke-linejoin="miter" stroke="rgb(0%, 0%, 0%)" stroke-opacity="1" stroke-miterlimit="10" d="M -9.919531 -9.921469 L 9.920313 -9.921469 L 9.920313 9.922281 L -9.919531 9.922281 Z M -9.919531 -9.921469 " transform="matrix(1, 0, 0, -1, 287.4, 89.309)"/>
<path fill="none" stroke-width="0.3985" stroke-linecap="butt" stroke-linejoin="miter" stroke="rgb(0%, 0%, 0%)" stroke-opacity="1" stroke-miterlimit="10" d="M -9.922687 -9.921469 L 9.921063 -9.921469 L 9.921063 9.922281 L -9.922687 9.922281 Z M -9.922687 -9.921469 " transform="matrix(1, 0, 0, -1, 307.243, 89.309)"/>
<path fill="none" stroke-width="0.3985" stroke-linecap="butt" stroke-linejoin="miter" stroke="rgb(0%, 0%, 0%)" stroke-opacity="1" stroke-miterlimit="10" d="M -9.923156 -9.921875 L 9.920594 -9.921875 L 9.920594 9.921875 L -9.923156 9.921875 Z M -9.923156 -9.921875 " transform="matrix(1, 0, 0, -1, 352.263, 51.375)"/>
<path fill="none" stroke-width="0.3985" stroke-linecap="butt" stroke-linejoin="miter" stroke="rgb(0%, 0%, 0%)" stroke-opacity="1" stroke-miterlimit="10" d="M -9.922406 -9.921875 L 9.921344 -9.921875 L 9.921344 9.921875 L -9.922406 9.921875 Z M -9.922406 -9.921875 " transform="matrix(1, 0, 0, -1, 372.106, 51.375)"/>
<path fill="none" stroke-width="0.3985" stroke-linecap="butt" stroke-linejoin="miter" stroke="rgb(0%, 0%, 0%)" stroke-opacity="1" stroke-miterlimit="10" d="M -9.920656 -9.921875 L 9.923094 -9.921875 L 9.923094 9.921875 L -9.920656 9.921875 Z M -9.920656 -9.921875 " transform="matrix(1, 0, 0, -1, 391.948, 51.375)"/>
<path fill="none" stroke-width="0.3985" stroke-linecap="butt" stroke-linejoin="miter" stroke="rgb(0%, 0%, 0%)" stroke-opacity="1" stroke-miterlimit="10" d="M -9.923156 -9.921063 L 9.920594 -9.921063 L 9.920594 9.922687 L -9.923156 9.922687 Z M -9.923156 -9.921063 " transform="matrix(1, 0, 0, -1, 352.263, 127.243)"/>
<path fill="none" stroke-width="0.3985" stroke-linecap="butt" stroke-linejoin="miter" stroke="rgb(0%, 0%, 0%)" stroke-opacity="1" stroke-miterlimit="10" d="M -9.922406 -9.921063 L 9.921344 -9.921063 L 9.921344 9.922687 L -9.922406 9.922687 Z M -9.922406 -9.921063 " transform="matrix(1, 0, 0, -1, 372.106, 127.243)"/>
<path fill="none" stroke-width="0.3985" stroke-linecap="butt" stroke-linejoin="miter" stroke="rgb(0%, 0%, 0%)" stroke-opacity="1" stroke-miterlimit="10" d="M -9.920656 -9.921063 L 9.923094 -9.921063 L 9.923094 9.922687 L -9.920656 9.922687 Z M -9.920656 -9.921063 " transform="matrix(1, 0, 0, -1, 391.948, 127.243)"/>
<path fill="none" stroke-width="0.79701" stroke-linecap="butt" stroke-linejoin="miter" stroke="rgb(0%, 0%, 0%)" stroke-opacity="1" stroke-miterlimit="10" d="M 32.24825 10.450031 L 51.916219 27.028156 " transform="matrix(1, 0, 0, -1, 33.283, 127.243)"/>
<path fill="none" stroke-width="0.6376" stroke-linecap="round" stroke-linejoin="round" stroke="rgb(0%, 0%, 0%)" stroke-opacity="1" stroke-miterlimit="10" d="M -1.554232 2.073108 C -1.42401 1.294114 0.000522929 0.1293 0.38845 0.00160255 C 0.000576645 -0.131291 -1.424882 -1.295286 -1.552734 -2.071348 " transform="matrix(0.76462, -0.64441, -0.64441, -0.76462, 85.20011, 100.21639)"/>
<path fill="none" stroke-width="0.79701" stroke-linecap="butt" stroke-linejoin="miter" stroke="rgb(0%, 0%, 0%)" stroke-opacity="1" stroke-miterlimit="10" d="M 116.955281 48.383625 L 136.62325 64.96175 " transform="matrix(1, 0, 0, -1, 33.283, 127.243)"/>
<path fill="none" stroke-width="0.6376" stroke-linecap="round" stroke-linejoin="round" stroke="rgb(0%, 0%, 0%)" stroke-opacity="1" stroke-miterlimit="10" d="M -1.554542 2.072211 C -1.42432 1.293216 0.000212719 0.128403 0.38814 0.000704921 C 0.000266435 -0.132189 -1.425192 -1.296184 -1.553044 -2.072246 " transform="matrix(0.76462, -0.64441, -0.64441, -0.76462, 169.9068, 62.28191)"/>
<path fill="none" stroke-width="0.79701" stroke-linecap="butt" stroke-linejoin="miter" stroke="rgb(0%, 0%, 0%)" stroke-opacity="1" stroke-miterlimit="10" d="M 116.955281 27.485187 L 136.62325 10.907062 " transform="matrix(1, 0, 0, -1, 33.283, 127.243)"/>
<path fill="none" stroke-width="0.6376" stroke-linecap="round" stroke-linejoin="round" stroke="rgb(0%, 0%, 0%)" stroke-opacity="1" stroke-miterlimit="10" d="M -1.552968 2.072156 C -1.425116 1.296094 0.00034216 0.132099 0.388215 -0.000794772 C 0.000288444 -0.128492 -1.424245 -1.293306 -1.554467 -2.072301 " transform="matrix(0.76462, 0.64441, 0.64441, -0.76462, 169.9068, 116.33516)"/>
<path fill="none" stroke-width="0.79701" stroke-linecap="butt" stroke-linejoin="miter" stroke="rgb(0%, 0%, 0%)" stroke-opacity="1" stroke-miterlimit="10" d="M 201.662312 86.321125 L 221.330281 102.895344 " transform="matrix(1, 0, 0, -1, 33.283, 127.243)"/>
<path fill="none" stroke-width="0.6376" stroke-linecap="round" stroke-linejoin="round" stroke="rgb(0%, 0%, 0%)" stroke-opacity="1" stroke-miterlimit="10" d="M -1.554817 2.071309 C -1.422077 1.295301 -0.0000616614 0.127501 0.387865 -0.000196751 C -0.000477559 -0.127586 -1.422949 -1.294099 -1.553318 -2.073147 " transform="matrix(0.76462, -0.64441, -0.64441, -0.76462, 254.61346, 24.34745)"/>
<path fill="none" stroke-width="0.79701" stroke-linecap="butt" stroke-linejoin="miter" stroke="rgb(0%, 0%, 0%)" stroke-opacity="1" stroke-miterlimit="10" d="M 201.662312 65.418781 L 221.330281 48.840656 " transform="matrix(1, 0, 0, -1, 33.283, 127.243)"/>
<path fill="none" stroke-width="0.6376" stroke-linecap="round" stroke-linejoin="round" stroke="rgb(0%, 0%, 0%)" stroke-opacity="1" stroke-miterlimit="10" d="M -1.552126 2.071733 C -1.424274 1.295671 -0.00180275 0.129158 0.389057 -0.00121793 C 0.00113061 -0.128916 -1.423402 -1.293729 -1.553624 -2.072724 " transform="matrix(0.76462, 0.64441, 0.64441, -0.76462, 254.61346, 78.4007)"/>
<path fill="none" stroke-width="0.79701" stroke-linecap="butt" stroke-linejoin="miter" stroke="rgb(0%, 0%, 0%)" stroke-opacity="1" stroke-miterlimit="10" d="M 201.662312 10.450031 L 221.330281 27.028156 " transform="matrix(1, 0, 0, -1, 33.283, 127.243)"/>
<path fill="none" stroke-width="0.6376" stroke-linecap="round" stroke-linejoin="round" stroke="rgb(0%, 0%, 0%)" stroke-opacity="1" stroke-miterlimit="10" d="M -1.553687 2.072649 C -1.423465 1.293654 0.00106777 0.128841 0.388995 0.00114337 C -0.00186558 -0.129233 -1.424337 -1.295746 -1.552189 -2.071807 " transform="matrix(0.76462, -0.64441, -0.64441, -0.76462, 254.61346, 100.21639)"/>
<path fill="none" stroke-width="0.79701" stroke-linecap="butt" stroke-linejoin="miter" stroke="rgb(0%, 0%, 0%)" stroke-opacity="1" stroke-miterlimit="10" d="M 286.369344 103.352375 L 306.037312 86.778156 " transform="matrix(1, 0, 0, -1, 33.283, 127.243)"/>
<path fill="none" stroke-width="0.6376" stroke-linecap="round" stroke-linejoin="round" stroke="rgb(0%, 0%, 0%)" stroke-opacity="1" stroke-miterlimit="10" d="M -1.553788 2.074281 C -1.423419 1.295233 -0.000947697 0.12872 0.387395 0.0013307 C 0.00198566 -0.129354 -1.425534 -1.296685 -1.552769 -2.073162 " transform="matrix(0.76462, 0.64441, 0.64441, -0.76462, 339.32012, 40.46622)"/>
<path fill="none" stroke-width="0.79701" stroke-linecap="butt" stroke-linejoin="miter" stroke="rgb(0%, 0%, 0%)" stroke-opacity="1" stroke-miterlimit="10" d="M 286.369344 48.383625 L 306.037312 64.96175 " transform="matrix(1, 0, 0, -1, 33.283, 127.243)"/>
<path fill="none" stroke-width="0.6376" stroke-linecap="round" stroke-linejoin="round" stroke="rgb(0%, 0%, 0%)" stroke-opacity="1" stroke-miterlimit="10" d="M -1.553975 2.071732 C -1.42674 1.295255 0.000780501 0.127924 0.388707 0.000226402 C -0.00215285 -0.13015 -1.424624 -1.296663 -1.552476 -2.072724 " transform="matrix(0.76462, -0.64441, -0.64441, -0.76462, 339.32012, 62.28191)"/>
<path fill="none" stroke-width="0.79701" stroke-linecap="butt" stroke-linejoin="miter" stroke="rgb(0%, 0%, 0%)" stroke-opacity="1" stroke-miterlimit="10" d="M 286.369344 27.485187 L 306.037312 10.907062 " transform="matrix(1, 0, 0, -1, 33.283, 127.243)"/>
<path fill="none" stroke-width="0.6376" stroke-linecap="round" stroke-linejoin="round" stroke="rgb(0%, 0%, 0%)" stroke-opacity="1" stroke-miterlimit="10" d="M -1.5524 2.072634 C -1.424548 1.296573 -0.00207713 0.13006 0.388783 -0.000316253 C 0.000856227 -0.128014 -1.426664 -1.295345 -1.553899 -2.071822 " transform="matrix(0.76462, 0.64441, 0.64441, -0.76462, 339.32012, 116.33516)"/>
</svg>
